<svg id="visual" viewBox="0 0 900 600" width="900" height="600" xmlns="http://www.w3.org/2000/svg" xmlns:xlink="http://www.w3.org/1999/xlink" version="1.1"><path d="M0 452L21.5 440.2C43 428.3 86 404.7 128.8 406.5C171.7 408.3 214.3 435.7 257.2 446.7C300 457.7 343 452.3 385.8 457.5C428.7 462.7 471.3 478.3 514.2 480C557 481.7 600 469.3 642.8 473.3C685.7 477.3 728.3 497.7 771.2 505.3C814 513 857 508 878.5 505.5L900 503L900 601L878.5 601C857 601 814 601 771.2 601C728.3 601 685.7 601 642.8 601C600 601 557 601 514.2 601C471.3 601 428.7 601 385.8 601C343 601 300 601 257.2 601C214.3 601 171.7 601 128.8 601C86 601 43 601 21.5 601L0 601Z" fill="#c5610e" stroke-linecap="round" stroke-linejoin="miter"></path></svg>