<svg id="visual" viewBox="0 0 900 600" width="900" height="600" xmlns="http://www.w3.org/2000/svg" xmlns:xlink="http://www.w3.org/1999/xlink" version="1.1"><path d="M0 381L37.5 391.8C75 402.7 150 424.3 225 438.2C300 452 375 458 450 458.7C525 459.3 600 454.7 675 435C750 415.3 825 380.7 862.5 363.3L900 346L900 601L862.5 601C825 601 750 601 675 601C600 601 525 601 450 601C375 601 300 601 225 601C150 601 75 601 37.5 601L0 601Z" fill="#f9f4f4"></path><path d="M0 440L37.5 454.5C75 469 150 498 225 517.7C300 537.3 375 547.7 450 539.3C525 531 600 504 675 488.7C750 473.3 825 469.7 862.5 467.8L900 466L900 601L862.5 601C825 601 750 601 675 601C600 601 525 601 450 601C375 601 300 601 225 601C150 601 75 601 37.5 601L0 601Z" fill="#dadada"></path></svg>