<svg id="visual" viewBox="0 0 900 600" width="900" height="600" xmlns="http://www.w3.org/2000/svg" xmlns:xlink="http://www.w3.org/1999/xlink" version="1.1"><path d="M0 271L25 263C50 255 100 239 150 243C200 247 250 271 300 267C350 263 400 231 450 207C500 183 550 167 600 154C650 141 700 131 750 127C800 123 850 125 875 126L900 127L900 0L875 0C850 0 800 0 750 0C700 0 650 0 600 0C550 0 500 0 450 0C400 0 350 0 300 0C250 0 200 0 150 0C100 0 50 0 25 0L0 0Z" fill="#964318"></path><path d="M0 313L25 314C50 315 100 317 150 324C200 331 250 343 300 337C350 331 400 307 450 290C500 273 550 263 600 247C650 231 700 209 750 205C800 201 850 215 875 222L900 229L900 125L875 124C850 123 800 121 750 125C700 129 650 139 600 152C550 165 500 181 450 205C400 229 350 261 300 265C250 269 200 245 150 241C100 237 50 253 25 261L0 269Z" fill="#d2672d"></path><path d="M0 385L25 389C50 393 100 401 150 405C200 409 250 409 300 410C350 411 400 413 450 405C500 397 550 379 600 363C650 347 700 333 750 331C800 329 850 339 875 344L900 349L900 227L875 220C850 213 800 199 750 203C700 207 650 229 600 245C550 261 500 271 450 288C400 305 350 329 300 335C250 341 200 329 150 322C100 315 50 313 25 312L0 311Z" fill="#e18a59"></path><path d="M0 505L25 502C50 499 100 493 150 498C200 503 250 519 300 527C350 535 400 535 450 536C500 537 550 539 600 534C650 529 700 517 750 513C800 509 850 513 875 515L900 517L900 347L875 342C850 337 800 327 750 329C700 331 650 345 600 361C550 377 500 395 450 403C400 411 350 409 300 408C250 407 200 407 150 403C100 399 50 391 25 387L0 383Z" fill="#d2672d"></path><path d="M0 601L25 601C50 601 100 601 150 601C200 601 250 601 300 601C350 601 400 601 450 601C500 601 550 601 600 601C650 601 700 601 750 601C800 601 850 601 875 601L900 601L900 515L875 513C850 511 800 507 750 511C700 515 650 527 600 532C550 537 500 535 450 534C400 533 350 533 300 525C250 517 200 501 150 496C100 491 50 497 25 500L0 503Z" fill="#964318"></path></svg>