<svg id="visual" viewBox="0 0 900 600" width="900" height="600" xmlns="http://www.w3.org/2000/svg" xmlns:xlink="http://www.w3.org/1999/xlink" version="1.1"><path d="M0 463L21.5 470.3C43 477.7 86 492.3 128.8 502.3C171.7 512.3 214.3 517.7 257.2 518.8C300 520 343 517 385.8 510C428.7 503 471.3 492 514.2 478.2C557 464.3 600 447.7 642.8 447.7C685.7 447.7 728.3 464.3 771.2 477.3C814 490.3 857 499.7 878.5 504.3L900 509L900 601L878.5 601C857 601 814 601 771.2 601C728.3 601 685.7 601 642.8 601C600 601 557 601 514.2 601C471.3 601 428.7 601 385.8 601C343 601 300 601 257.2 601C214.3 601 171.7 601 128.8 601C86 601 43 601 21.5 601L0 601Z" fill="#edcb8b" stroke-linecap="round" stroke-linejoin="miter"></path></svg>